<?xml version="1.0" encoding="iso-8859-1"?>
<svg version="1.1" id="Layer_1" xmlns="http://www.w3.org/2000/svg" xmlns:xlink="http://www.w3.org/1999/xlink" x="0px" y="0px" viewBox="0 0 512 512" enable-background="new 0 0 512 512" xml:space="preserve" width="32px" height="32px" fill="#6EE7B7">
  <g>
    <g>
      <path d="M101.368,122.217c-36.288,0-65.809,29.521-65.809,65.809c0,36.288,29.521,65.809,65.809,65.809 c36.288,0,65.809-29.521,65.809-65.809C167.177,151.738,137.656,122.217,101.368,122.217z M101.368,235.032 c-25.919,0-47.006-21.086-47.006-47.006c0-25.92,21.088-47.006,47.006-47.006c25.919,0,47.006,21.086,47.006,47.006 C148.375,213.945,127.287,235.032,101.368,235.032z"></path>
    </g>
  </g>
  <g>
    <g>
      <path d="M106.069,47.006c-18.144,0-32.904,14.761-32.904,32.904c0,18.144,14.761,32.904,32.904,32.904 c18.144,0,32.904-14.76,32.904-32.904C138.973,61.767,124.213,47.006,106.069,47.006z M106.069,94.013 c-7.776,0-14.102-6.326-14.102-14.102s6.326-14.102,14.102-14.102c7.776,0,14.102,6.326,14.102,14.102 S113.845,94.013,106.069,94.013z"></path>
    </g>
  </g>
  <g>
    <g>
      <path d="M237.687,0c-18.144,0-32.904,14.761-32.904,32.904c0,18.144,14.761,32.904,32.904,32.904 c18.144,0,32.904-14.76,32.904-32.904C270.591,14.761,255.831,0,237.687,0z M237.687,47.006c-7.776,0-14.102-6.326-14.102-14.102 c0-7.776,6.326-14.102,14.102-14.102c7.776,0,14.102,6.326,14.102,14.102C251.789,40.681,245.463,47.006,237.687,47.006z"></path>
    </g>
  </g>
  <g>
    <g>
      <path d="M185.98,65.809c-20.735,0-37.605,16.87-37.605,37.605c0,20.735,16.87,37.605,37.605,37.605 c20.735,0,37.605-16.87,37.605-37.605C223.585,82.679,206.715,65.809,185.98,65.809z M185.98,122.217 c-10.367,0-18.803-8.435-18.803-18.803c0-10.367,8.435-18.803,18.803-18.803s18.803,8.435,18.803,18.803 C204.782,113.782,196.347,122.217,185.98,122.217z"></path>
    </g>
  </g>
  <g>
    <g>
      <path d="M223.585,159.822c-25.919,0-47.006,21.086-47.006,47.006c0,25.92,21.088,47.006,47.006,47.006 c25.919,0,47.006-21.086,47.006-47.006C270.591,180.908,249.504,159.822,223.585,159.822z M223.585,235.032 c-15.551,0-28.204-12.651-28.204-28.204c0-15.553,12.652-28.204,28.204-28.204c15.551,0,28.204,12.651,28.204,28.204 C251.789,222.381,239.136,235.032,223.585,235.032z"></path>
    </g>
  </g>
  <g>
    <g>
      <path d="M185.98,253.834c-25.919,0-47.006,21.086-47.006,47.006c0,25.92,21.088,47.006,47.006,47.006 c25.919,0,47.006-21.086,47.006-47.006C232.986,274.921,211.899,253.834,185.98,253.834z M185.98,329.045 c-15.551,0-28.204-12.651-28.204-28.204c0-15.552,12.652-28.204,28.204-28.204c15.551,0,28.204,12.651,28.204,28.204 C214.184,316.393,201.531,329.045,185.98,329.045z"></path>
    </g>
  </g>
  <g>
    <g>
      <path d="M465.411,256.733L359.066,150.388c-14.666-14.667-38.529-14.674-53.191-0.007l-19.481,19.48 c-3.672,3.67-3.672,9.624-0.001,13.294c3.672,3.672,9.625,3.674,13.295,0l19.482-19.48c7.332-7.329,19.267-7.324,26.599,0.007 l106.345,106.345c7.337,7.338,7.36,19.252,0.049,26.563L260.872,487.799c-3.533,3.533-8.232,5.398-13.234,5.398 c-0.008,0-0.015,0-0.023,0c-5.02,0-9.744-1.889-13.302-5.447L127.969,381.445c-7.337-7.335-7.365-19.225-0.063-26.526l3.212-3.202 c3.67-3.672,3.669-9.622-0.002-13.292c-3.672-3.668-9.624-3.668-13.296,0.005l-3.211,3.213 c-14.631,14.632-14.602,38.47,0.064,53.137l106.344,106.265c7.105,7.104,16.543,10.955,26.578,10.955c0.015,0,0.029,0,0.044,0 c10.026,0,19.446-3.822,26.531-10.907L465.46,309.845c7.091-7.095,10.991-16.51,10.98-26.554 C476.429,273.252,472.512,263.835,465.411,256.733z"></path>
    </g>
  </g>
  <g>
    <g>
      <path d="M345.802,338.076h-75.21c-5.192,0-9.401,4.209-9.401,9.401c0,5.192,4.209,9.401,9.401,9.401h75.21 c5.192,0,9.401-4.209,9.401-9.401C355.203,342.286,350.993,338.076,345.802,338.076z"></path>
    </g>
  </g>
  <g>
    <g>
      <path d="M326.999,375.682H195.381c-5.192,0-9.401,4.209-9.401,9.401c0,5.192,4.209,9.401,9.401,9.401h131.618 c5.192,0,9.401-4.209,9.401-9.401C336.4,379.891,332.191,375.682,326.999,375.682z"></path>
    </g>
  </g>
  <g>
    <g>
      <path d="M261.19,422.688h-37.605c-5.192,0-9.401,4.209-9.401,9.401s4.209,9.401,9.401,9.401h37.605 c5.192,0,9.401-4.209,9.401-9.401S266.382,422.688,261.19,422.688z"></path>
    </g>
  </g>
  <g></g>
  <g></g>
  <g></g>
  <g></g>
  <g></g>
  <g></g>
  <g></g>
  <g></g>
  <g></g>
  <g></g>
  <g></g>
  <g></g>
  <g></g>
  <g></g>
  <g></g>
</svg>